<svg width="60" height="44" viewBox="0 0 60 44" fill="none" xmlns="http://www.w3.org/2000/svg">
<path d="M60 29.0075H39.1509C38.704 29.0075 38.3339 29.3405 38.2787 29.7706C38.2764 29.8121 38.274 29.8536 38.2717 29.8957C38.2658 29.981 38.2593 30.0669 38.2523 30.1522C37.9616 33.7225 36.3464 37.0422 33.6312 39.6011C31.5473 41.565 28.9883 42.9184 26.1985 43.5647C25.4861 43.6985 24.7619 43.7978 24.0271 43.8603C23.4351 43.9118 22.836 43.9392 22.2317 43.9422C22.1923 43.9422 22.1524 43.9422 22.113 43.9422C21.4364 43.9422 20.7663 43.9118 20.1049 43.8516C20.8044 43.9451 21.5145 43.9947 22.2328 44C22.1929 44 22.153 44 22.113 44C19.1276 44 16.2321 43.4186 13.5057 42.2715C10.8727 41.163 8.50749 39.5771 6.4765 37.5564C4.4461 35.5358 2.85149 33.1832 1.73791 30.5636C0.584395 27.8522 0 24.9708 0 22.0006C0 19.0304 0.584395 16.1495 1.73791 13.437C2.85149 10.8174 4.4461 8.46482 6.4765 6.44416C8.50749 4.42349 10.8727 2.83758 13.5057 1.72908C16.2321 0.582008 19.1276 0 22.113 0C25.0984 0 27.994 0.582008 30.7204 1.72908C32.9046 2.64884 34.9051 3.897 36.6829 5.45018C36.6982 5.46304 36.7135 5.47648 36.7288 5.48992C37.0776 5.79612 37.4183 6.11458 37.7495 6.44416C38.5994 7.2897 39.3723 8.1931 40.0654 9.15026C40.0771 9.16603 40.0889 9.1824 40.1 9.19817L40.0407 9.23499L34.649 12.6067L34.5915 12.6423C34.5797 12.6265 34.568 12.6113 34.5556 12.5956C33.5313 11.2568 32.2938 10.0875 30.8936 9.13915C30.876 9.12688 30.8584 9.1152 30.8408 9.10351C28.3464 7.42702 25.3428 6.44766 22.113 6.44766C13.4933 6.44766 6.48003 13.4247 6.48003 22.0006C6.48003 23.1798 6.61276 24.3286 6.86414 25.433C6.85239 25.478 6.84123 25.5224 6.83066 25.5674C6.84065 25.6124 6.85122 25.6574 6.86238 25.7018C6.87295 25.6568 6.88352 25.6124 6.89527 25.5674C8.26669 31.363 12.9066 35.9185 18.7652 37.1953C19.0953 37.2672 19.4289 37.3285 19.766 37.3794C20.4421 37.481 21.1322 37.5395 21.834 37.5512C26.6596 37.4489 30.7157 33.8616 31.9679 29.0075C31.9731 28.9882 31.9778 28.9683 31.9831 28.949C32.2298 27.9726 32.3631 26.9459 32.3672 25.8865C32.3672 25.6995 32.3837 25.5166 32.416 25.3389C32.6415 24.0738 33.6365 23.0705 34.9004 22.8245C35.096 22.7859 35.298 22.7661 35.5042 22.7661H49.9672L50.0612 22.8245L59.906 28.949L60 29.0075Z" fill="white"/>
<path d="M28.4436 15.8912C28.4436 16.0443 28.406 16.1886 28.339 16.3154C28.3073 16.3663 28.275 16.4165 28.2409 16.4656C28.2403 16.4668 28.2398 16.4679 28.2386 16.4691C27.4187 17.6705 26.0343 18.4594 24.4644 18.4594C23.9528 18.4594 23.4612 18.3758 23.0025 18.221H23.0019C22.9591 18.2052 22.9162 18.19 22.8733 18.1754C22.3741 18.0071 21.839 17.9183 21.2822 17.9224C18.6898 17.9428 16.5519 20.0301 16.4855 22.6082C16.4708 23.1751 16.5548 23.7202 16.721 24.228C16.815 24.5144 16.4356 24.7171 16.2459 24.4822C15.2057 23.1932 14.5831 21.5558 14.5831 19.7742C14.5831 16.3148 16.9295 13.4007 20.1252 12.5213C20.7683 12.3442 21.4461 12.2496 22.1462 12.2496C24.6347 12.2496 26.8425 13.4457 28.221 15.2911C28.2486 15.3285 28.2762 15.3659 28.3038 15.4038C28.3925 15.5447 28.4436 15.7118 28.4436 15.8906V15.8912Z" fill="white"/>
<path d="M41.0564 11.3521C41.0564 11.3521 41.056 11.3521 41.056 11.3529C41.0564 11.3525 41.0564 11.3521 41.0568 11.3521H41.0564Z" fill="white"/>
<path d="M48.0017 13.295C47.9841 13.2419 47.9524 13.1969 47.9107 13.1618C47.9084 13.16 47.906 13.1583 47.9037 13.1565L47.8784 13.139L47.5824 12.9368L47.5272 12.8994L45.6671 11.6285L45.6078 11.5887L45.5238 11.5315L45.4745 11.4976L43.639 10.2436L43.6056 10.2208L43.5821 10.2073C43.5462 10.2249 43.5615 10.2179 43.5263 10.2371C43.2115 10.4101 42.9342 10.6427 42.7099 10.9197C42.6975 10.9349 42.6852 10.9506 42.6735 10.9664C42.687 10.9804 42.7005 10.9945 42.7152 11.0085C43.0752 11.3702 43.5368 11.6326 44.0531 11.7488C44.0555 11.7494 44.0584 11.75 44.0607 11.7506C44.1036 11.7605 44.1477 11.7693 44.1917 11.7763C44.214 11.781 44.2364 11.7845 44.2593 11.7874C44.3544 11.8178 44.4231 11.9072 44.4231 12.0118C44.4231 12.1094 44.3638 12.193 44.2792 12.2286C44.2775 12.2292 44.2763 12.2298 44.2751 12.2303C44.2593 12.235 44.2428 12.2397 44.2264 12.2438C44.1776 12.2572 44.1277 12.2695 44.0772 12.28C44.0743 12.2806 44.0713 12.2812 44.0684 12.2818C43.8916 12.3186 43.7078 12.3379 43.5198 12.3379C43.0552 12.3379 42.6177 12.2198 42.2353 12.0124C42.2177 12.003 42.1995 11.9925 42.1819 11.9826C41.9158 11.8301 41.6785 11.6343 41.48 11.4041C41.4712 11.3924 41.4618 11.3813 41.4518 11.3702C41.4512 11.3702 41.4506 11.369 41.4506 11.369C41.4142 11.334 41.3696 11.3077 41.3191 11.2942C41.3179 11.2942 41.3173 11.2936 41.3161 11.2936C41.3062 11.2907 41.2962 11.289 41.2862 11.2878C41.2727 11.2855 41.258 11.2843 41.2439 11.2843C41.2093 11.2843 41.1758 11.2901 41.1446 11.3018C41.1129 11.3129 41.0836 11.3299 41.0583 11.3509C41.0583 11.3509 41.0581 11.3513 41.0577 11.3521C41.0577 11.3521 41.0571 11.3527 41.0565 11.3532C41.0565 11.3532 41.0554 11.3532 41.0548 11.3544L25.1058 20.5152C25.1029 20.5164 25.1005 20.5175 25.0976 20.5187C25.0477 20.5403 25.0001 20.5672 24.9572 20.5988C24.9572 20.5993 24.9566 20.5993 24.9566 20.5993C24.8985 20.6432 24.8474 20.6952 24.8057 20.7554C24.7264 20.8664 24.68 21.0025 24.68 21.1486C24.68 21.2433 24.7 21.3344 24.7352 21.4168C24.7387 21.425 24.7422 21.4332 24.7464 21.4414C24.7493 21.4478 24.7522 21.4536 24.7552 21.4595C24.7563 21.4618 24.7575 21.4648 24.7587 21.4671C24.7663 21.4817 24.7751 21.4963 24.7839 21.5103C24.7857 21.5133 24.7875 21.5156 24.7892 21.5185C24.7928 21.5238 24.7963 21.5296 24.8004 21.5349C24.8439 21.5723 24.882 21.6149 24.9137 21.6628C24.9778 21.7598 25.0148 21.8761 25.0148 22.0006C25.0148 22.2191 24.9002 22.4114 24.7281 22.5207L24.5895 22.5867L24.5296 22.6153C24.5296 22.6153 24.5273 22.6165 24.5267 22.6165C24.4856 22.6317 24.4468 22.6504 24.4104 22.672C24.4092 22.672 24.4086 22.6732 24.4081 22.6738C24.4063 22.6743 24.4051 22.6749 24.4039 22.6761C24.3405 22.7147 24.2841 22.7638 24.2366 22.8204C24.1391 22.9379 24.0803 23.0881 24.0803 23.2517C24.0803 23.2791 24.0821 23.3066 24.0856 23.3329C24.1079 23.5199 24.2078 23.6841 24.3517 23.7922C24.4656 23.8775 24.6066 23.9284 24.7599 23.9284C24.801 23.9284 24.8409 23.9248 24.8797 23.9178C24.922 23.9102 24.9631 23.8986 25.0024 23.8839L25.0993 23.8378L27.5832 22.6533L27.7805 22.5592C27.8222 22.5329 27.8668 22.5119 27.9138 22.4955C27.9808 22.4722 28.0536 22.4593 28.1288 22.4593C28.3426 22.4593 28.5329 22.5616 28.6527 22.7193L28.7666 22.956L28.8448 23.1173L29.0368 23.5164C29.0574 23.583 29.0873 23.6449 29.1261 23.701C29.1431 23.7262 29.1613 23.7501 29.1819 23.7723C29.3064 23.9102 29.4867 23.9973 29.6876 23.9973C29.6981 23.9973 29.7087 23.9973 29.7193 23.9961C29.7774 23.9938 29.8338 23.9839 29.8873 23.9675C29.9854 23.9371 30.0746 23.8857 30.1486 23.8173L44.8636 15.3654L44.9693 15.304L47.1178 14.0705L47.2241 14.0091L47.8655 13.6404C47.8684 13.6392 47.8714 13.6375 47.8749 13.6351C47.9266 13.6047 47.9683 13.5574 47.9923 13.5013C47.9923 13.5007 47.9929 13.5001 47.9929 13.4995C48.0076 13.4651 48.0164 13.4271 48.0164 13.3868C48.0164 13.3546 48.0111 13.3237 48.0017 13.295ZM24.7904 21.4519C24.7875 21.4496 24.7851 21.4478 24.7822 21.4461L24.8086 21.4332C24.8086 21.4332 24.8115 21.4385 24.8127 21.4414L24.7904 21.4519ZM24.9173 23.86L24.9132 23.8512C24.9372 23.8448 24.9601 23.8372 24.9831 23.8284L24.9173 23.86ZM29.1913 23.7028L29.1754 23.6701C29.1825 23.68 29.1895 23.6899 29.1977 23.6999L29.1913 23.7028ZM44.2352 12.3022C44.2563 12.297 44.2775 12.2905 44.298 12.2847C44.2781 12.2935 44.2569 12.2993 44.2352 12.3022Z" fill="white"/>
</svg>
